<?xml version="1.0" encoding="utf-8"?>
<!-- Generator: Adobe Illustrator 24.2.1, SVG Export Plug-In . SVG Version: 6.00 Build 0)  -->
<svg version="1.1" id="Layer_1" xmlns="http://www.w3.org/2000/svg" xmlns:xlink="http://www.w3.org/1999/xlink" x="0px" y="0px"
	 viewBox="0 0 1100 400" style="enable-background:new 0 0 1100 400;" xml:space="preserve">
<style type="text/css">
	.st0{fill:#551A8B;}
</style>
<path class="st0" d="M339.14,110.25c7.32,15.88,10.43,32.27,9.32,49.19c-1.11,16.92-5.5,33.18-13.15,48.79
	c-7.65,15.62-17.78,29.41-30.39,41.38c-8.16,7.81-19.06,14.38-32.69,19.71c-13.63,5.33-27.57,8.39-41.8,9.17
	c-14.24,0.78-27.43-1.3-39.58-6.25c-3.43,8.93-6.98,17.05-10.64,24.33c-3.66,7.29-7.98,14.55-12.94,21.79
	c-4.96,7.24-10.6,13.6-16.9,19.06c-6.31,5.46-13.12,9.76-20.45,12.88c-14.1,5.81-27.2,7.05-39.3,3.71
	c-12.1-3.34-22.6-9.5-31.51-18.48c-8.9-8.98-15.83-19.54-20.8-31.68c-4.96-12.15-7.3-24.07-7.02-35.78
	c0.28-12.58,2.85-24.87,7.72-36.89c4.87-12.01,11.85-21.84,20.94-29.47c7.51-6.33,15.6-9.69,24.27-10.08
	c8.67-0.39,16.6,1.65,23.79,6.12c7.19,4.47,13.05,10.6,17.6,18.41c1.58,2.69,2.11,5.4,1.6,8.13c-0.51,2.73-1.74,4.86-3.69,6.38
	c-1.95,1.52-4.29,2.45-7.02,2.8c-2.74,0.35-5.63-0.52-8.69-2.6c-2.04-1.39-3.43-2.32-4.17-2.8c-0.74-0.48-1.88-1.15-3.41-2.02
	c-1.53-0.87-2.64-1.34-3.34-1.43c-0.7-0.08-1.65-0.2-2.85-0.33c-1.21-0.13-2.25,0.04-3.13,0.52c-0.88,0.48-1.9,1.15-3.06,2.02
	c-1.16,0.87-2.34,2-3.55,3.38c-5.47,6.25-9.69,14.31-12.66,24.2c-2.88,8.59-3.85,17.94-2.92,28.04c0.93,10.11,3.9,19.06,8.9,26.87
	c2.69,4.16,5.52,7.44,8.49,9.82c2.97,2.38,5.89,3.84,8.76,4.36c2.87,0.52,5.79,0.48,8.76-0.13c2.97-0.61,5.86-1.91,8.69-3.9
	c2.83-2,5.59-4.23,8.28-6.7c2.69-2.47,5.31-5.38,7.86-8.72c2.55-3.34,4.94-6.59,7.16-9.76c2.23-3.17,4.33-6.51,6.33-10.02
	c1.99-3.51,3.69-6.66,5.08-9.43c1.39-2.78,2.69-5.42,3.9-7.94c5.38-11.62,10.41-23.62,15.09-35.98
	c4.68-12.36,9.27-25.85,13.77-40.47c4.5-14.62,8.11-26.74,10.85-36.37c2.73-9.63,6.51-23.4,11.34-41.31
	c4.82-17.91,8.21-30.47,10.15-37.67c-20.13,1.65-37.77,8.02-52.93,19.13c-15.16,11.1-24.88,25.63-29.14,43.59
	c-0.65,2.86-2,5.03-4.03,6.51c-2.04,1.48-4.36,2.19-6.96,2.15c-2.6-0.04-5.19-0.48-7.79-1.3c-2.6-0.82-4.99-2.12-7.16-3.9
	c-2.18-1.78-3.69-3.71-4.52-5.79c-2.23-4.94-3.08-10.08-2.57-15.42c0.51-5.33,1.76-10.43,3.76-15.29c1.99-4.86,4.8-9.65,8.42-14.38
	c3.62-4.73,7.37-9,11.27-12.82c3.9-3.82,8.02-7.29,12.38-10.41c21.14-15.27,47.11-23.42,77.9-24.46c4.26-0.09,9.09,0,14.47,0.26
	c2.97-1.47,6.28-1.97,9.95-1.5c3.66,0.48,7.02,1.76,10.08,3.84c13.63,2.43,26.41,6.4,38.32,11.91
	c11.92,5.51,22.79,12.82,32.62,21.93C326.02,88.26,333.67,98.62,339.14,110.25z M275.57,224.37c13.82-13.27,23.79-29.23,29.91-47.88
	c6.12-18.65,6.31-36.3,0.56-52.96c-4.17-12.06-11.45-21.97-21.84-29.73c-10.39-7.76-22.54-13.21-36.45-16.33
	c-0.37,1.3-1.62,6.18-3.76,14.64c-2.13,8.46-3.43,13.62-3.9,15.48c-0.46,1.87-1.69,6.64-3.69,14.31c-2,7.68-3.34,12.84-4.03,15.48
	c-0.7,2.65-1.97,7.4-3.83,14.25c-1.86,6.85-3.27,12.02-4.24,15.48c-0.97,3.47-2.32,8.22-4.03,14.25
	c-1.72,6.03-3.22,11.17-4.52,15.42c-1.3,4.25-2.76,8.98-4.38,14.18c-1.62,5.21-3.22,10.19-4.8,14.96c-0.09,0.17-0.88,2.6-2.37,7.29
	c-1.48,4.68-2.64,8.29-3.48,10.8c13.82,2,27.52,1.37,41.11-1.89C255.42,238.87,266.67,232.95,275.57,224.37z M523.32,211.22
	c1.48-1.04,3.36-1.47,5.63-1.3c2.27,0.17,4.26,0.83,5.98,1.95c1.71,1.13,2.97,2.5,3.76,4.1c0.79,1.61,0.49,3.32-0.9,5.14
	c-16.14,21.25-41.5,43.12-76.09,65.58c-1.02,3.47-2.57,8.67-4.66,15.61c-2.09,6.94-3.64,12.14-4.66,15.62
	c-1.11,3.56-2.23,6.96-3.34,10.21c-1.11,3.25-2.43,6.7-3.96,10.34c-1.53,3.64-3.11,7-4.73,10.08c-1.62,3.08-3.5,6.27-5.63,9.56
	c-2.13,3.3-4.34,6.18-6.61,8.65c-2.27,2.47-4.8,4.92-7.58,7.35c-2.78,2.43-5.7,4.36-8.76,5.79c-3.06,1.43-6.42,2.73-10.08,3.9
	c-3.66,1.17-7.47,1.71-11.41,1.63c-3.94-0.09-8.23-0.44-12.87-1.04h-0.28c-1.58,0.17-3.29,0.04-5.15-0.39
	c-9-1.91-16.05-5.73-21.14-11.45c-5.1-5.73-7.93-12.04-8.49-18.93c-0.56-6.9,0.74-13.95,3.9-21.15c3.15-7.2,7.93-13.27,14.33-18.22
	c4.82-3.73,10.36-7.24,16.62-10.54c6.26-3.3,13.56-6.81,21.91-10.54c8.35-3.73,14.37-6.55,18.08-8.46c0.65-0.35,1.62-0.85,2.92-1.5
	c1.3-0.65,2.27-1.15,2.92-1.5c0.56-2.08,0.97-3.6,1.25-4.55c1.48-5.12,3.76-12.75,6.82-22.9c3.06-10.15,5.33-17.78,6.82-22.9
	c-11.59,14.31-23.12,25.81-34.57,34.48c-11.45,8.67-21.82,12.67-31.09,11.97c-1.11,0.26-2.41,0.26-3.9,0
	c-6.21-1.13-11.2-3.49-14.95-7.09c-3.76-3.6-6.26-7.87-7.51-12.82c-1.25-4.95-1.72-10.65-1.39-17.11
	c0.33-6.46,1.23-12.86,2.71-19.19c1.48-6.33,3.36-12.99,5.63-19.97c2.27-6.98,4.45-13.12,6.54-18.41
	c2.09-5.29,4.19-10.45,6.33-15.48c1.58-3.73,2.64-6.29,3.2-7.68c1.58-3.99,4.43-6.59,8.56-7.81c4.13-1.21,8.18-1.19,12.17,0.06
	c3.99,1.26,7.26,3.49,9.81,6.7c2.55,3.21,3.27,6.77,2.16,10.67c-0.83,2.78-3.29,10.71-7.37,23.81c-4.08,13.1-7,23.21-8.76,30.32
	c-1.76,7.11-3.43,14.49-5.01,22.12c3.62-2.6,8.95-7.42,16-14.44c9.09-8.76,19.38-20.17,30.88-34.22c2.32-2.86,5.59-7.11,9.81-12.75
	c4.22-5.64,8.18-10.69,11.89-15.16c3.71-4.47,7.42-8.39,11.13-11.78c2.13-3.47,5.45-5.53,9.95-6.18c4.5-0.65,8.83-0.15,13.01,1.5
	c4.17,1.65,7.58,4.25,10.22,7.81c2.64,3.56,3.36,7.33,2.16,11.32c-2.5,8.42-6.21,21.04-11.13,37.87
	c-4.92,16.83-8.63,29.45-11.13,37.87C502.64,226.27,519.33,214.08,523.32,211.22z M378.79,361.77c8.9-3.47,16.16-9.46,21.77-17.96
	c5.61-8.5,10.32-18.83,14.12-30.97c-2.78,1.65-5.29,3.14-7.51,4.49c-2.23,1.34-5.15,3.21-8.76,5.6c-3.62,2.38-6.7,4.6-9.25,6.64
	c-2.55,2.04-5.29,4.31-8.21,6.83c-2.92,2.51-5.08,4.9-6.47,7.16c-1.39,2.25-2.41,4.49-3.06,6.7c-0.65,2.21-0.35,4.31,0.9,6.31
	C373.57,358.56,375.73,360.3,378.79,361.77z M674.67,212.65c1.2-1.47,2.87-2.34,5.01-2.6c2.13-0.26,4.13-0.07,5.98,0.58
	c1.85,0.65,3.34,1.78,4.45,3.38c1.11,1.61,1.44,3.36,0.97,5.27c-1.95,7.72-4.87,15.4-8.76,23.03c-3.9,7.63-9.16,14.86-15.79,21.67
	c-6.63,6.81-13.75,11.3-21.35,13.47c-8.07,2.34-15.58,1.56-22.54-2.34c-4.36-1.56-7.88-3.9-10.57-7.03
	c-2.69-3.12-4.45-6.87-5.29-11.26c-0.83-4.38-1.25-8.93-1.25-13.66c0-4.73,0.65-10.04,1.95-15.94c1.3-5.9,2.64-11.3,4.03-16.2
	c1.39-4.9,3.11-10.3,5.15-16.2c-4.36,4.08-10.53,10.45-18.5,19.13c-5.94,6.51-14.03,16.7-24.27,30.58
	c-10.25,13.88-18.2,23.94-23.86,30.19c-1.95,3.04-4.96,4.21-9.04,3.51c-28.66-5.21-31.62-37.13-8.9-95.77
	c1.48-3.73,3.52-8.76,6.12-15.09c1.39-3.47,2.36-5.9,2.92-7.29c1.58-3.99,4.43-6.59,8.56-7.81c4.13-1.21,8.18-1.19,12.17,0.06
	c3.99,1.26,7.26,3.49,9.81,6.7c2.55,3.21,3.27,6.77,2.16,10.67c-1.11,3.82-2.78,9.3-5.01,16.46c-2.23,7.16-4.2,13.62-5.91,19.39
	c-1.72,5.77-3.22,11.3-4.52,16.59c7.51-10.32,19.15-23.9,34.92-40.73c2.78-2.86,5.1-5.25,6.96-7.16c1.85-1.91,4.45-4.36,7.79-7.35
	c3.34-2.99,6.33-5.36,8.97-7.09c2.64-1.73,5.77-3.45,9.39-5.14c3.62-1.69,6.98-2.69,10.08-2.99c3.11-0.3,6.42-0.02,9.95,0.85
	c3.52,0.87,6.86,2.56,10.02,5.07c4.54,3.47,6.07,7.11,4.59,10.93c0,1.04-0.05,1.82-0.14,2.34c-0.74,5.12-1.86,10.52-3.34,16.2
	c-1.48,5.68-3.27,11.97-5.36,18.87c-2.09,6.9-3.64,12.21-4.66,15.94c-3.15,11.54-5.52,20.91-7.09,28.11
	c-0.09,0.35-0.16,0.74-0.21,1.17c-0.05,0.44-0.12,1-0.21,1.69c-0.09,0.7-0.19,1.26-0.28,1.69c1.2-0.78,2.48-1.8,3.83-3.06
	c1.34-1.26,2.83-2.8,4.45-4.62c1.62-1.82,2.53-2.82,2.71-2.99c3.34-3.56,7.58-8.96,12.73-16.2
	C668.62,220.44,672.35,215.43,674.67,212.65z M830.05,212.65c1.2-1.47,2.85-2.34,4.94-2.6c2.09-0.26,4.06-0.04,5.91,0.65
	c1.85,0.7,3.34,1.84,4.45,3.45c1.11,1.61,1.44,3.36,0.97,5.27c-1.39,5.64-3.43,11.37-6.12,17.18c-2.69,5.81-5.94,11.52-9.74,17.11
	c-3.8,5.6-8.33,10.54-13.56,14.83c-5.24,4.29-10.73,7.27-16.48,8.91c-4.36,1.3-8.86,1.6-13.49,0.91c-0.83,0.09-1.86,0-3.06-0.26
	c-14.65-2.6-22.63-12.01-23.93-28.24c-13.54,17.09-28.01,26.41-43.4,27.98c-7.98,0.78-15.21-0.56-21.7-4.03
	c-6.49-3.47-11.52-8.18-15.09-14.12c-3.57-5.94-6.12-12.43-7.65-19.45c-1.53-7.03-1.83-13.83-0.9-20.43
	c1.39-9.54,4.87-19.06,10.43-28.56s12.87-17.83,21.91-24.98c9.04-7.16,18.62-11.56,28.73-13.21c7.42-1.21,14.61-0.59,21.56,1.89
	c6.96,2.47,12.43,6.62,16.42,12.43c2.87,4.16,4.64,9.02,5.29,14.57c4.17-10.41,6.91-17.22,8.21-20.43c1.58-3.99,4.43-6.59,8.56-7.81
	c4.13-1.21,8.18-1.19,12.17,0.06c3.99,1.26,7.25,3.49,9.81,6.7c2.55,3.21,3.27,6.77,2.16,10.67c-1.11,3.73-2.83,9.3-5.15,16.72
	c-2.32,7.42-4.34,14.05-6.05,19.91c-1.72,5.86-3.22,11.47-4.52,16.85c-2.97,12.41-4.92,21.13-5.84,26.15
	c-0.09,0.44-0.21,1.13-0.35,2.08c-0.14,0.96-0.26,1.69-0.35,2.21c1.3-0.78,2.64-1.8,4.03-3.06c1.39-1.26,2.99-2.88,4.8-4.88
	c1.81-1.99,2.8-3.08,2.99-3.25c3.34-3.56,7.6-8.96,12.8-16.2C823.98,220.44,827.73,215.43,830.05,212.65z M735.88,237.9
	c2.23-1.99,4.54-4.36,6.96-7.09c2.41-2.73,4.24-4.86,5.5-6.38c1.25-1.52,3.41-4.21,6.47-8.07c3.06-3.86,4.91-6.18,5.56-6.96
	c-0.28-0.52-0.42-1.08-0.42-1.69c-0.09-0.78-0.16-2.21-0.21-4.29c-0.05-2.08-0.14-3.92-0.28-5.53c-0.14-1.6-0.35-3.49-0.63-5.66
	c-0.28-2.17-0.76-3.99-1.46-5.46c-0.7-1.47-1.58-2.88-2.64-4.23c-1.07-1.34-2.48-2.25-4.24-2.73c-1.76-0.48-3.8-0.5-6.12-0.06
	c-4.73,0.87-11.22,5.64-19.47,14.31c-10.94,11.37-17.16,24.46-18.64,39.3c-1.02,10.5,0.14,16.53,3.48,18.09
	c5.1,2.34,13.17-1.56,24.21-11.71c0.18-0.17,0.46-0.43,0.83-0.78L735.88,237.9z M1002.27,56.38c3.8,2.17,7.28,4.94,10.43,8.33
	c3.15,3.38,5.66,7.07,7.51,11.06c1.85,3.99,2.94,7.92,3.27,11.78c0.32,3.86-0.65,7.61-2.92,11.26c-2.27,3.64-5.82,6.59-10.64,8.85
	c-4.17,2-8.83,1.61-13.98-1.17c-5.15-2.78-7.77-6.33-7.86-10.67c-0.09-7.11-1.65-11.91-4.66-14.38c-3.01-2.47-8.6-4.18-16.76-5.14
	c-7.14-0.87-15.91-1.21-26.29-1.04c-10.85,0.09-23.09,0.65-36.72,1.69c-9.65,31.49-16.79,55.82-21.42,73
	c-8.16,29.32-14.1,51.35-17.81,66.1c-1.11,6.07-1.86,10.45-2.23,13.14c-0.19,1.04-0.4,3.06-0.63,6.05
	c-0.23,2.99-0.19,6.57,0.14,10.73c0.32,4.16,1.18,6.72,2.57,7.68c1.39-1.21,4.45-4.47,9.18-9.76c3.25-3.64,7.39-9.17,12.45-16.59
	c5.05-7.42,8.92-12.73,11.62-15.94c1.95-1.82,4.26-2.75,6.96-2.8c2.69-0.04,5.08,0.89,7.16,2.8c2.09,1.91,2.8,4.16,2.16,6.77
	c-1.48,5.81-3.55,11.71-6.19,17.7c-2.64,5.99-5.87,11.91-9.67,17.76c-3.8,5.86-8.37,11.02-13.7,15.48
	c-5.33,4.47-10.97,7.57-16.9,9.3c-10.39,2.95-19.38,1.17-26.99-5.33c-7.6-6.51-11.73-14.7-12.38-24.59
	c-0.56-3.9-0.6-10.97-0.14-21.21c0.46-7.46,1.55-15.75,3.27-24.85c1.72-9.11,3.32-16.53,4.8-22.25c1.48-5.73,3.71-13.79,6.68-24.2
	c7.05-25.16,14.7-50.57,22.95-76.25c-8.63,0.61-15.86,0.96-21.7,1.04c-5.84,0.09-12.61-0.15-20.31-0.72
	c-7.7-0.56-14.77-1.95-21.21-4.16c-6.44-2.21-12.26-5.27-17.46-9.17c-2.97-2.17-4.82-4.64-5.56-7.42c-0.74-2.77-0.49-5.25,0.77-7.42
	c1.25-2.17,3.04-4.08,5.36-5.73c2.32-1.65,5.03-2.45,8.14-2.41c3.11,0.04,6.14,0.93,9.11,2.67c2.6,1.65,5.56,2.93,8.9,3.84
	c3.34,0.91,7.21,1.41,11.62,1.5c4.41,0.09,8.02,0.09,10.85,0c2.83-0.09,6.89-0.37,12.17-0.85c5.29-0.48,8.53-0.76,9.74-0.85
	c1.95-0.08,4.03-0.22,6.26-0.39c2.23-0.17,4.68-0.39,7.37-0.65c2.69-0.26,4.78-0.43,6.26-0.52c4.64-13.36,7.42-21.34,8.35-23.94
	c1.2-3.3,3.29-5.7,6.26-7.22c2.97-1.52,6.12-2.02,9.46-1.5c3.34,0.52,6.51,1.52,9.53,2.99c3.01,1.48,5.29,3.64,6.82,6.51
	c1.53,2.86,1.78,5.81,0.76,8.85c-0.46,1.39-1.09,3.38-1.88,5.99c-0.79,2.6-1.37,4.47-1.74,5.6c5.56-0.43,11.08-0.69,16.55-0.78
	c15.49-0.52,29.07-0.11,40.76,1.24C982.37,47.51,992.9,50.91,1002.27,56.38z M1053.04,212.65c1.2-1.47,2.85-2.34,4.94-2.6
	c2.09-0.26,4.06-0.04,5.91,0.65c1.85,0.7,3.34,1.84,4.45,3.45c1.11,1.61,1.44,3.36,0.97,5.27c-1.39,5.64-3.43,11.37-6.12,17.18
	c-2.69,5.81-5.94,11.52-9.74,17.11c-3.8,5.6-8.33,10.54-13.56,14.83c-5.24,4.29-10.74,7.27-16.48,8.91
	c-4.36,1.3-8.86,1.6-13.49,0.91c-0.83,0.09-1.86,0-3.06-0.26c-14.65-2.6-22.63-12.01-23.93-28.24
	c-13.54,17.09-28.01,26.41-43.4,27.98c-7.98,0.78-15.21-0.56-21.7-4.03c-6.49-3.47-11.52-8.18-15.09-14.12
	c-3.57-5.94-6.12-12.43-7.65-19.45c-1.53-7.03-1.83-13.83-0.9-20.43c1.39-9.54,4.87-19.06,10.43-28.56
	c5.56-9.5,12.87-17.83,21.91-24.98c9.04-7.16,18.62-11.56,28.73-13.21c7.42-1.21,14.61-0.59,21.56,1.89
	c6.96,2.47,12.43,6.62,16.42,12.43c2.87,4.16,4.64,9.02,5.29,14.57c4.17-10.41,6.91-17.22,8.21-20.43c1.58-3.99,4.43-6.59,8.55-7.81
	c4.13-1.21,8.18-1.19,12.17,0.06c3.99,1.26,7.26,3.49,9.81,6.7c2.55,3.21,3.27,6.77,2.16,10.67c-1.11,3.73-2.83,9.3-5.15,16.72
	c-2.32,7.42-4.34,14.05-6.05,19.91c-1.72,5.86-3.22,11.47-4.52,16.85c-2.97,12.41-4.92,21.13-5.84,26.15
	c-0.09,0.44-0.21,1.13-0.35,2.08c-0.14,0.96-0.26,1.69-0.35,2.21c1.3-0.78,2.64-1.8,4.03-3.06c1.39-1.26,2.99-2.88,4.8-4.88
	c1.81-1.99,2.8-3.08,2.99-3.25c3.34-3.56,7.6-8.96,12.8-16.2C1046.97,220.44,1050.72,215.43,1053.04,212.65z M958.86,237.9
	c2.23-1.99,4.54-4.36,6.96-7.09c2.41-2.73,4.24-4.86,5.49-6.38c1.25-1.52,3.41-4.21,6.47-8.07c3.06-3.86,4.92-6.18,5.56-6.96
	c-0.28-0.52-0.42-1.08-0.42-1.69c-0.09-0.78-0.16-2.21-0.21-4.29c-0.05-2.08-0.14-3.92-0.28-5.53c-0.14-1.6-0.35-3.49-0.63-5.66
	c-0.28-2.17-0.76-3.99-1.46-5.46c-0.7-1.47-1.58-2.88-2.64-4.23c-1.07-1.34-2.48-2.25-4.24-2.73c-1.76-0.48-3.8-0.5-6.12-0.06
	c-4.73,0.87-11.22,5.64-19.48,14.31c-10.94,11.37-17.16,24.46-18.64,39.3c-1.02,10.5,0.14,16.53,3.48,18.09
	c5.1,2.34,13.17-1.56,24.2-11.71c0.18-0.17,0.46-0.43,0.83-0.78L958.86,237.9z"/>
</svg>
